G04 DipTrace 2.4.0.2*
%INBuckboost5V.GBO*%
%MOMM*%
%ADD12C,0.076*%
%ADD27C,0.152*%
%ADD36C,0.118*%
%FSLAX53Y53*%
G04*
G71*
G90*
G75*
G01*
%LNBotSilk*%
%LPD*%
X17523Y15878D2*
D27*
Y14257D1*
X20367D2*
Y15878D1*
X19467D2*
X18423D1*
X19373Y14257D2*
X19467D1*
X18423D2*
X18517D1*
X20273D2*
X20367D1*
X17523D2*
X17617D1*
Y15878D2*
X17523D1*
X20367D2*
X20273D1*
X18097Y19238D2*
D36*
Y18472D1*
X17659D1*
X17424Y19091D2*
X17351Y19128D1*
X17241Y19237D1*
Y18472D1*
X19219Y17814D2*
Y17267D1*
X19183Y17157D1*
X19110Y17085D1*
X19000Y17048D1*
X18928D1*
X18818Y17085D1*
X18745Y17157D1*
X18709Y17267D1*
Y17814D1*
X18474Y17667D2*
X18400Y17704D1*
X18291Y17813D1*
Y17048D1*
X19956Y22443D2*
D12*
X19859Y22103D1*
X19762Y22443D1*
X19665Y22103D1*
X19568Y22443D1*
X19411D2*
X19314Y22103D1*
X19216Y22443D1*
X19119Y22103D1*
X19022Y22443D1*
X18865D2*
X18768Y22103D1*
X18671Y22443D1*
X18574Y22103D1*
X18477Y22443D1*
X18296Y22152D2*
X18320Y22127D1*
X18296Y22103D1*
X18271Y22127D1*
X18296Y22152D1*
X18041Y22613D2*
Y22200D1*
X18017Y22128D1*
X17968Y22103D1*
X17920D1*
X18114Y22443D2*
X17944D1*
X17763Y22613D2*
Y22103D1*
Y22346D2*
X17690Y22419D1*
X17641Y22443D1*
X17568D1*
X17520Y22419D1*
X17496Y22346D1*
Y22103D1*
X17339Y22443D2*
Y22103D1*
Y22297D2*
X17314Y22370D1*
X17266Y22419D1*
X17217Y22443D1*
X17144D1*
X16987Y22297D2*
X16696D1*
Y22346D1*
X16720Y22395D1*
X16744Y22419D1*
X16793Y22443D1*
X16866D1*
X16914Y22419D1*
X16963Y22370D1*
X16987Y22297D1*
Y22249D1*
X16963Y22176D1*
X16914Y22128D1*
X16866Y22103D1*
X16793D1*
X16744Y22128D1*
X16696Y22176D1*
X16539Y22297D2*
X16247D1*
Y22346D1*
X16272Y22395D1*
X16296Y22419D1*
X16345Y22443D1*
X16418D1*
X16466Y22419D1*
X16515Y22370D1*
X16539Y22297D1*
Y22249D1*
X16515Y22176D1*
X16466Y22128D1*
X16418Y22103D1*
X16345D1*
X16296Y22128D1*
X16247Y22176D1*
X16091Y22443D2*
Y22103D1*
Y22346D2*
X16018Y22419D1*
X15969Y22443D1*
X15896D1*
X15847Y22419D1*
X15823Y22346D1*
Y22103D1*
Y22346D2*
X15750Y22419D1*
X15701Y22443D1*
X15629D1*
X15580Y22419D1*
X15555Y22346D1*
Y22103D1*
X15277Y22443D2*
X15326Y22419D1*
X15374Y22370D1*
X15399Y22297D1*
Y22249D1*
X15374Y22176D1*
X15326Y22128D1*
X15277Y22103D1*
X15204D1*
X15155Y22128D1*
X15107Y22176D1*
X15082Y22249D1*
Y22297D1*
X15107Y22370D1*
X15155Y22419D1*
X15204Y22443D1*
X15277D1*
X14634Y22613D2*
Y22103D1*
Y22370D2*
X14682Y22419D1*
X14731Y22443D1*
X14804D1*
X14853Y22419D1*
X14901Y22370D1*
X14926Y22297D1*
Y22249D1*
X14901Y22176D1*
X14853Y22128D1*
X14804Y22103D1*
X14731D1*
X14682Y22128D1*
X14634Y22176D1*
X14477Y22297D2*
X14186D1*
Y22346D1*
X14210Y22395D1*
X14234Y22419D1*
X14283Y22443D1*
X14356D1*
X14404Y22419D1*
X14453Y22370D1*
X14477Y22297D1*
Y22249D1*
X14453Y22176D1*
X14404Y22128D1*
X14356Y22103D1*
X14283D1*
X14234Y22128D1*
X14186Y22176D1*
X14005Y22152D2*
X14029Y22127D1*
X14005Y22103D1*
X13980Y22127D1*
X14005Y22152D1*
X13531Y22370D2*
X13580Y22419D1*
X13629Y22443D1*
X13701D1*
X13750Y22419D1*
X13798Y22370D1*
X13823Y22297D1*
Y22249D1*
X13798Y22176D1*
X13750Y22128D1*
X13701Y22103D1*
X13629D1*
X13580Y22128D1*
X13531Y22176D1*
X13253Y22443D2*
X13301Y22419D1*
X13350Y22370D1*
X13374Y22297D1*
Y22249D1*
X13350Y22176D1*
X13301Y22128D1*
X13253Y22103D1*
X13180D1*
X13131Y22128D1*
X13083Y22176D1*
X13058Y22249D1*
Y22297D1*
X13083Y22370D1*
X13131Y22419D1*
X13180Y22443D1*
X13253D1*
X12901D2*
Y22103D1*
Y22346D2*
X12828Y22419D1*
X12779Y22443D1*
X12707D1*
X12658Y22419D1*
X12634Y22346D1*
Y22103D1*
Y22346D2*
X12561Y22419D1*
X12512Y22443D1*
X12440D1*
X12391Y22419D1*
X12366Y22346D1*
Y22103D1*
X16507Y13297D2*
D36*
X16543Y13370D1*
X16617Y13443D1*
X16689Y13479D1*
X16835D1*
X16908Y13443D1*
X16981Y13370D1*
X17018Y13297D1*
X17054Y13188D1*
Y13005D1*
X17018Y12896D1*
X16981Y12823D1*
X16908Y12750D1*
X16835Y12713D1*
X16689D1*
X16617Y12750D1*
X16543Y12823D1*
X16507Y12896D1*
Y13005D1*
X16689D1*
X15762Y13479D2*
Y12713D1*
X16272Y13479D1*
Y12713D1*
X15526Y13479D2*
Y12713D1*
X15271D1*
X15162Y12750D1*
X15088Y12823D1*
X15052Y12896D1*
X15016Y13005D1*
Y13188D1*
X15052Y13297D1*
X15088Y13370D1*
X15162Y13443D1*
X15271Y13479D1*
X15526D1*
M02*
