G04 DipTrace 2.4.0.2*
%INBuckboost5V.GTO*%
%MOMM*%
%ADD10C,0.25*%
%ADD23C,0.203*%
%ADD36C,0.118*%
%ADD37C,0.157*%
%FSLAX53Y53*%
G04*
G71*
G90*
G75*
G01*
%LNTopSilk*%
%LPD*%
X12235Y16752D2*
D23*
Y18252D1*
X14635D1*
Y16752D1*
X12235Y14752D2*
Y13652D1*
X12635Y13252D1*
X14235D1*
X14635Y13652D1*
Y14752D1*
X17233Y13639D2*
X15533D1*
Y16789D1*
X17233D1*
X19133Y13688D2*
X20333D1*
X20733Y14038D1*
Y16488D1*
X20333Y16789D1*
X19133D1*
X15895Y19803D2*
Y20253D1*
X20495D1*
Y19803D1*
Y17804D2*
Y17353D1*
X15895D1*
Y17804D1*
X19195Y19803D2*
Y17804D1*
X19813Y10476D2*
D10*
X12194D1*
Y13016D1*
X19813D1*
Y10476D1*
X11341Y15847D2*
D36*
X11269Y15810D1*
X11196Y15737D1*
X11159Y15665D1*
Y15519D1*
X11196Y15446D1*
X11269Y15373D1*
X11341Y15336D1*
X11451Y15300D1*
X11634D1*
X11742Y15336D1*
X11816Y15373D1*
X11888Y15446D1*
X11925Y15519D1*
Y15665D1*
X11888Y15737D1*
X11816Y15810D1*
X11742Y15847D1*
X11306Y16082D2*
X11269Y16155D1*
X11160Y16265D1*
X11925D1*
X21140Y15159D2*
X21068Y15123D1*
X20994Y15050D1*
X20958Y14977D1*
Y14831D1*
X20994Y14758D1*
X21068Y14686D1*
X21140Y14649D1*
X21250Y14612D1*
X21432D1*
X21541Y14649D1*
X21614Y14686D1*
X21687Y14758D1*
X21724Y14831D1*
Y14977D1*
X21687Y15050D1*
X21614Y15123D1*
X21541Y15159D1*
X21141Y15431D2*
X21105D1*
X21031Y15468D1*
X20995Y15504D1*
X20959Y15577D1*
Y15723D1*
X20995Y15795D1*
X21031Y15831D1*
X21105Y15869D1*
X21177D1*
X21250Y15831D1*
X21359Y15759D1*
X21724Y15394D1*
Y15905D1*
X14461Y20719D2*
Y19954D1*
X14716D1*
X14826Y19991D1*
X14899Y20063D1*
X14935Y20137D1*
X14971Y20245D1*
Y20428D1*
X14935Y20537D1*
X14899Y20610D1*
X14826Y20683D1*
X14716Y20719D1*
X14461D1*
X15207Y20573D2*
X15280Y20610D1*
X15390Y20719D1*
Y19954D1*
X10885Y12253D2*
D37*
Y11232D1*
X11880Y12253D2*
Y11232D1*
X11199Y12253D1*
Y11232D1*
X20184Y10892D2*
D36*
X20220Y10819D1*
X20294Y10746D1*
X20366Y10709D1*
X20476Y10673D1*
X20658D1*
X20767Y10709D1*
X20840Y10746D1*
X20913Y10819D1*
X20950Y10892D1*
Y11038D1*
X20913Y11110D1*
X20840Y11184D1*
X20767Y11220D1*
X20658Y11256D1*
X20476D1*
X20366Y11220D1*
X20294Y11184D1*
X20220Y11110D1*
X20184Y11038D1*
Y10892D1*
Y11491D2*
X20731D1*
X20840Y11528D1*
X20913Y11601D1*
X20950Y11710D1*
Y11783D1*
X20913Y11892D1*
X20840Y11966D1*
X20731Y12002D1*
X20184D1*
Y12492D2*
X20950D1*
X20184Y12237D2*
Y12747D1*
M02*
