G04 DipTrace 2.4.0.2*
%INBuckboost5V.GTL*%
%MOMM*%
%ADD14C,1.0*%
%ADD15C,1.4*%
%ADD16C,1.2*%
%ADD17C,1.016*%
%ADD18C,1.5*%
%ADD21C,1.27*%
%ADD22C,0.1*%
%ADD24R,1.7X1.7*%
%ADD25C,1.7*%
%FSLAX53Y53*%
G04*
G71*
G90*
G75*
G01*
%LNTop*%
%LPD*%
X16003Y11746D2*
D14*
Y13266D1*
X16483Y13745D1*
Y15238D1*
X13435Y17152D2*
D15*
X15550D1*
D16*
X16483Y16220D1*
Y15238D1*
X15765Y16978D2*
D15*
X15550D1*
X16045Y18803D2*
D14*
X14865D1*
X13865D1*
X12765D1*
X11765D1*
X12865Y18807D2*
X12765D1*
X13865D2*
Y18803D1*
X14865Y18807D2*
Y18803D1*
X13435Y14352D2*
D3*
Y15578D2*
Y14352D1*
X18543Y11746D2*
D18*
X19975Y13178D1*
Y15046D1*
D16*
X19783Y15238D1*
X20345Y18803D2*
D21*
X19945D1*
D18*
Y15401D1*
D16*
X19783Y15238D1*
D17*
X11765Y18803D3*
X13435Y14352D3*
X12865Y18807D3*
X13865D3*
X14865D3*
X18036Y21271D3*
X16766D3*
X14226D3*
X20576D3*
X19306D3*
X15496D3*
X11686D3*
X12956D3*
X15765Y16978D3*
X16895D3*
X13435Y15578D3*
X10360Y22553D2*
D22*
X21641D1*
X10360Y22457D2*
X21641D1*
X10360Y22360D2*
X21641D1*
X10360Y22263D2*
X21641D1*
X10360Y22167D2*
X21641D1*
X10360Y22070D2*
X21641D1*
X10360Y21973D2*
X21641D1*
X10360Y21877D2*
X21641D1*
X10360Y21780D2*
X21641D1*
X10360Y21683D2*
X21641D1*
X10360Y21587D2*
X21641D1*
X10360Y21490D2*
X21641D1*
X10360Y21393D2*
X21641D1*
X10360Y21297D2*
X21641D1*
X10360Y21200D2*
X21641D1*
X10360Y21103D2*
X21641D1*
X10360Y21007D2*
X21641D1*
X10360Y20910D2*
X21641D1*
X10360Y20813D2*
X21641D1*
X10360Y20717D2*
X21641D1*
X10360Y20620D2*
X21641D1*
X10360Y20523D2*
X21641D1*
X10360Y20427D2*
X21641D1*
X10360Y20330D2*
X21641D1*
X10360Y20233D2*
X21641D1*
X10360Y20137D2*
X21641D1*
X10360Y20040D2*
X21641D1*
X10360Y19943D2*
X21641D1*
X10360Y19847D2*
X15227D1*
X16864D2*
X19527D1*
X21164D2*
X21641D1*
X10360Y19750D2*
X15117D1*
X16973D2*
X19367D1*
X21273D2*
X21641D1*
X10360Y19653D2*
X11613D1*
X17025D2*
X19231D1*
X21325D2*
X21641D1*
X10360Y19557D2*
X11336D1*
X17044D2*
X19128D1*
X21344D2*
X21641D1*
X10360Y19460D2*
X11197D1*
X17044D2*
X19049D1*
X21344D2*
X21641D1*
X10360Y19363D2*
X11100D1*
X17044D2*
X18985D1*
X21344D2*
X21641D1*
X10360Y19267D2*
X11028D1*
X17044D2*
X18933D1*
X21344D2*
X21641D1*
X10360Y19170D2*
X10975D1*
X17044D2*
X18894D1*
X21344D2*
X21641D1*
X10360Y19073D2*
X10936D1*
X17044D2*
X18864D1*
X21344D2*
X21641D1*
X10360Y18977D2*
X10911D1*
X17044D2*
X18845D1*
X21344D2*
X21641D1*
X10360Y18880D2*
X10897D1*
X17044D2*
X18835D1*
X21344D2*
X21641D1*
X10360Y18783D2*
X10894D1*
X17044D2*
X18831D1*
X21344D2*
X21641D1*
X10360Y18687D2*
X10902D1*
X17044D2*
X18831D1*
X21344D2*
X21641D1*
X10360Y18590D2*
X10920D1*
X17044D2*
X18831D1*
X21344D2*
X21641D1*
X10360Y18493D2*
X10952D1*
X17044D2*
X18831D1*
X21344D2*
X21641D1*
X10360Y18397D2*
X10995D1*
X17044D2*
X18831D1*
X21344D2*
X21641D1*
X10360Y18300D2*
X11056D1*
X17044D2*
X18831D1*
X21344D2*
X21641D1*
X10360Y18203D2*
X11136D1*
X17044D2*
X18831D1*
X21344D2*
X21641D1*
X10360Y18107D2*
X11249D1*
X17044D2*
X18831D1*
X21344D2*
X21641D1*
X10360Y18010D2*
X11419D1*
X17039D2*
X18831D1*
X21339D2*
X21641D1*
X10360Y17913D2*
X15083D1*
X17008D2*
X18831D1*
X21308D2*
X21641D1*
X10360Y17817D2*
X15152D1*
X16939D2*
X18831D1*
X21239D2*
X21641D1*
X10360Y17720D2*
X15339D1*
X16751D2*
X18831D1*
X21059D2*
X21641D1*
X10360Y17623D2*
X18831D1*
X21059D2*
X21641D1*
X10360Y17527D2*
X18831D1*
X21059D2*
X21641D1*
X10360Y17430D2*
X18831D1*
X21059D2*
X21641D1*
X10360Y17333D2*
X18831D1*
X21059D2*
X21641D1*
X10360Y17237D2*
X18831D1*
X21059D2*
X21641D1*
X10360Y17140D2*
X18831D1*
X21059D2*
X21641D1*
X10360Y17043D2*
X18831D1*
X21059D2*
X21641D1*
X10360Y16947D2*
X18831D1*
X21059D2*
X21641D1*
X10360Y16850D2*
X18831D1*
X21059D2*
X21641D1*
X10360Y16753D2*
X18831D1*
X21059D2*
X21641D1*
X10360Y16657D2*
X18831D1*
X21059D2*
X21641D1*
X10360Y16560D2*
X18827D1*
X21059D2*
X21641D1*
X10360Y16463D2*
X18819D1*
X21059D2*
X21641D1*
X10360Y16367D2*
X13078D1*
X13790D2*
X18819D1*
X21059D2*
X21641D1*
X10360Y16270D2*
X12913D1*
X13958D2*
X18819D1*
X21059D2*
X21641D1*
X10360Y16173D2*
X12803D1*
X14067D2*
X18819D1*
X21059D2*
X21641D1*
X10360Y16077D2*
X12722D1*
X14147D2*
X18819D1*
X21059D2*
X21641D1*
X10360Y15980D2*
X12663D1*
X14208D2*
X18819D1*
X21059D2*
X21641D1*
X10360Y15883D2*
X12619D1*
X14250D2*
X18819D1*
X21059D2*
X21641D1*
X10360Y15787D2*
X12589D1*
X14281D2*
X18819D1*
X21059D2*
X21641D1*
X10360Y15690D2*
X12570D1*
X14300D2*
X18819D1*
X21059D2*
X21641D1*
X10360Y15593D2*
X12564D1*
X14306D2*
X18819D1*
X21076D2*
X21641D1*
X10360Y15497D2*
X12567D1*
X14303D2*
X18819D1*
X21087D2*
X21641D1*
X10360Y15400D2*
X12561D1*
X14309D2*
X18819D1*
X21089D2*
X21641D1*
X10360Y15303D2*
X12377D1*
X14494D2*
X18819D1*
X21089D2*
X21641D1*
X10360Y15207D2*
X12306D1*
X14564D2*
X18819D1*
X21089D2*
X21641D1*
X10360Y15110D2*
X12277D1*
X14594D2*
X18819D1*
X21089D2*
X21641D1*
X10360Y15013D2*
X12272D1*
X14598D2*
X18819D1*
X21089D2*
X21641D1*
X10360Y14917D2*
X12272D1*
X14598D2*
X18819D1*
X21089D2*
X21641D1*
X10360Y14820D2*
X12272D1*
X14598D2*
X18819D1*
X21089D2*
X21641D1*
X10360Y14723D2*
X12272D1*
X14598D2*
X18819D1*
X21089D2*
X21641D1*
X10360Y14627D2*
X12272D1*
X14598D2*
X18819D1*
X21089D2*
X21641D1*
X10360Y14530D2*
X12272D1*
X14598D2*
X18819D1*
X21089D2*
X21641D1*
X10360Y14433D2*
X12272D1*
X14598D2*
X18819D1*
X21089D2*
X21641D1*
X10360Y14337D2*
X12272D1*
X14598D2*
X18819D1*
X21089D2*
X21641D1*
X10360Y14240D2*
X12272D1*
X14598D2*
X18819D1*
X21089D2*
X21641D1*
X10360Y14143D2*
X12272D1*
X14598D2*
X18819D1*
X21089D2*
X21641D1*
X10360Y14047D2*
X12272D1*
X14598D2*
X18819D1*
X21089D2*
X21641D1*
X10360Y13950D2*
X12272D1*
X14598D2*
X18820D1*
X21089D2*
X21641D1*
X10360Y13853D2*
X12272D1*
X14598D2*
X18845D1*
X21089D2*
X21641D1*
X10360Y13757D2*
X12272D1*
X14598D2*
X18861D1*
X21089D2*
X21641D1*
X10360Y13660D2*
X12272D1*
X14598D2*
X18861D1*
X21089D2*
X21641D1*
X10360Y13563D2*
X12283D1*
X14587D2*
X18789D1*
X21089D2*
X21641D1*
X10360Y13467D2*
X12324D1*
X14547D2*
X18692D1*
X21089D2*
X21641D1*
X10360Y13370D2*
X12413D1*
X14458D2*
X18595D1*
X21089D2*
X21641D1*
X10360Y13273D2*
X18499D1*
X21089D2*
X21641D1*
X10360Y13177D2*
X18402D1*
X21089D2*
X21641D1*
X10360Y13080D2*
X18306D1*
X21084D2*
X21641D1*
X10360Y12983D2*
X18210D1*
X21072D2*
X21641D1*
X10360Y12887D2*
X13067D1*
X13859D2*
X17330D1*
X21050D2*
X21641D1*
X10360Y12790D2*
X12853D1*
X14073D2*
X17330D1*
X21019D2*
X21641D1*
X10360Y12693D2*
X12710D1*
X14215D2*
X17330D1*
X20976D2*
X21641D1*
X10360Y12597D2*
X12602D1*
X14325D2*
X17330D1*
X20923D2*
X21641D1*
X10360Y12500D2*
X12514D1*
X14412D2*
X17330D1*
X20856D2*
X21641D1*
X10360Y12403D2*
X12444D1*
X14481D2*
X17330D1*
X20770D2*
X21641D1*
X10360Y12307D2*
X12388D1*
X14539D2*
X17330D1*
X20675D2*
X21641D1*
X10360Y12210D2*
X12342D1*
X14584D2*
X17330D1*
X20578D2*
X21641D1*
X10360Y12113D2*
X12306D1*
X14620D2*
X17330D1*
X20481D2*
X21641D1*
X10360Y12017D2*
X12280D1*
X14647D2*
X17330D1*
X20384D2*
X21641D1*
X10360Y11920D2*
X12263D1*
X14664D2*
X17330D1*
X20287D2*
X21641D1*
X10360Y11823D2*
X12252D1*
X14675D2*
X17330D1*
X20190D2*
X21641D1*
X10360Y11727D2*
X12250D1*
X14676D2*
X17330D1*
X20094D2*
X21641D1*
X10360Y11630D2*
X12255D1*
X14672D2*
X17330D1*
X19997D2*
X21641D1*
X10360Y11533D2*
X12269D1*
X14658D2*
X17330D1*
X19901D2*
X21641D1*
X10360Y11437D2*
X12289D1*
X14636D2*
X17330D1*
X19805D2*
X21641D1*
X10360Y11340D2*
X12320D1*
X14606D2*
X17330D1*
X19756D2*
X21641D1*
X10360Y11243D2*
X12360D1*
X14567D2*
X17330D1*
X19756D2*
X21641D1*
X10360Y11147D2*
X12410D1*
X14517D2*
X17330D1*
X19756D2*
X21641D1*
X10360Y11050D2*
X12472D1*
X14455D2*
X17330D1*
X19756D2*
X21641D1*
X10360Y10953D2*
X12547D1*
X14378D2*
X17330D1*
X19756D2*
X21641D1*
X10360Y10857D2*
X12642D1*
X14284D2*
X17330D1*
X19756D2*
X21641D1*
X10360Y10760D2*
X12763D1*
X14162D2*
X17330D1*
X19756D2*
X21641D1*
X10360Y10663D2*
X12928D1*
X13998D2*
X17330D1*
X19756D2*
X21641D1*
X10360Y10567D2*
X13214D1*
X13712D2*
X17330D1*
X19756D2*
X21641D1*
X10360Y10470D2*
X21641D1*
X10360Y10373D2*
X21641D1*
X12281Y13702D2*
Y15052D1*
X12285Y15102D1*
X12295Y15151D1*
X12313Y15198D1*
X12336Y15242D1*
X12366Y15282D1*
X12401Y15318D1*
X12441Y15348D1*
X12484Y15372D1*
X12531Y15390D1*
X12581Y15402D1*
X12580Y15470D1*
X12573Y15569D1*
X12578Y15669D1*
X12594Y15768D1*
X12622Y15864D1*
X12661Y15956D1*
X12710Y16043D1*
X12768Y16124D1*
X12836Y16197D1*
X12912Y16263D1*
X12995Y16319D1*
X13083Y16365D1*
X13177Y16400D1*
X13274Y16424D1*
X13373Y16437D1*
X13473Y16439D1*
X13572Y16428D1*
X13670Y16407D1*
X13764Y16374D1*
X13854Y16331D1*
X13939Y16277D1*
X14016Y16214D1*
X14086Y16142D1*
X14147Y16063D1*
X14199Y15978D1*
X14240Y15887D1*
X14270Y15791D1*
X14289Y15693D1*
X14297Y15578D1*
X14291Y15478D1*
X14289Y15401D1*
X14328Y15394D1*
X14375Y15377D1*
X14420Y15354D1*
X14460Y15325D1*
X14497Y15291D1*
X14528Y15252D1*
X14553Y15209D1*
X14572Y15162D1*
X14584Y15114D1*
X14589Y15052D1*
Y13652D1*
X14586Y13602D1*
X14575Y13554D1*
X14558Y13507D1*
X14534Y13463D1*
X14505Y13423D1*
X14470Y13387D1*
X14430Y13357D1*
X14386Y13332D1*
X14340Y13314D1*
X14291Y13303D1*
X14235Y13298D1*
X12635D1*
X12585Y13302D1*
X12537Y13312D1*
X12490Y13330D1*
X12446Y13353D1*
X12406Y13383D1*
X12370Y13418D1*
X12340Y13458D1*
X12315Y13501D1*
X12297Y13548D1*
X12286Y13596D1*
X12281Y13652D1*
Y13702D1*
X18829Y14038D2*
Y16488D1*
X18832Y16532D1*
X18842Y16583D1*
X18841Y18101D1*
X18842Y18853D1*
X18851Y18953D1*
X18869Y19051D1*
X18896Y19148D1*
X18931Y19241D1*
X18975Y19331D1*
X19027Y19417D1*
X19086Y19497D1*
X19152Y19572D1*
X19225Y19640D1*
X19304Y19702D1*
X19388Y19756D1*
X19476Y19804D1*
X19516Y19834D1*
X19559Y19859D1*
X19606Y19877D1*
X19654Y19888D1*
X19710Y19892D1*
X19762D1*
X19861Y19904D1*
X19961Y19907D1*
X20061Y19901D1*
X20127Y19892D1*
X20980D1*
X21030Y19889D1*
X21079Y19878D1*
X21126Y19861D1*
X21170Y19837D1*
X21210Y19808D1*
X21246Y19773D1*
X21276Y19733D1*
X21300Y19690D1*
X21319Y19643D1*
X21330Y19594D1*
X21334Y19538D1*
Y18068D1*
X21331Y18019D1*
X21320Y17970D1*
X21303Y17923D1*
X21279Y17879D1*
X21250Y17839D1*
X21215Y17803D1*
X21175Y17773D1*
X21131Y17748D1*
X21086Y17731D1*
X21049Y17703D1*
Y15686D1*
X21066Y15598D1*
X21077Y15499D1*
X21079Y15281D1*
X21078Y13128D1*
X21069Y13029D1*
X21051Y12931D1*
X21024Y12834D1*
X20989Y12741D1*
X20945Y12651D1*
X20893Y12565D1*
X20834Y12485D1*
X20768Y12410D1*
X19747Y11389D1*
Y10542D1*
X17339D1*
Y12950D1*
X18187Y12951D1*
X18871Y13635D1*
Y13821D1*
X18846Y13878D1*
X18834Y13927D1*
X18829Y13988D1*
Y14038D1*
X16630Y17714D2*
X15410D1*
X15360Y17718D1*
X15312Y17728D1*
X15265Y17746D1*
X15221Y17769D1*
X15181Y17799D1*
X15145Y17834D1*
X15115Y17874D1*
X15091Y17916D1*
X15045Y17949D1*
X14869Y17946D1*
X14765Y17949D1*
X13945D1*
X13869Y17946D1*
X13765Y17949D1*
X12919Y17947D1*
X12819D1*
X12765Y17949D1*
X11869Y17948D1*
X11769Y17941D1*
X11669Y17947D1*
X11571Y17964D1*
X11475Y17992D1*
X11383Y18031D1*
X11296Y18080D1*
X11215Y18139D1*
X11142Y18207D1*
X11077Y18284D1*
X11022Y18367D1*
X10976Y18456D1*
X10941Y18549D1*
X10917Y18646D1*
X10905Y18745D1*
X10904Y18845D1*
X10915Y18945D1*
X10937Y19042D1*
X10970Y19137D1*
X11014Y19226D1*
X11068Y19310D1*
X11131Y19388D1*
X11203Y19457D1*
X11283Y19518D1*
X11368Y19569D1*
X11460Y19610D1*
X11555Y19640D1*
X11653Y19658D1*
X11753Y19665D1*
X11853Y19661D1*
X11915Y19657D1*
X12723D1*
X12803Y19667D1*
X12903Y19669D1*
X13010Y19657D1*
X13723D1*
X13803Y19667D1*
X13903Y19669D1*
X14010Y19657D1*
X14723D1*
X14803Y19667D1*
X14903Y19669D1*
X15010Y19657D1*
X15076D1*
X15108Y19723D1*
X15137Y19764D1*
X15171Y19800D1*
X15211Y19831D1*
X15254Y19856D1*
X15300Y19875D1*
X15348Y19887D1*
X15410Y19892D1*
X16680D1*
X16730Y19889D1*
X16779Y19878D1*
X16826Y19861D1*
X16870Y19837D1*
X16910Y19808D1*
X16946Y19773D1*
X16976Y19733D1*
X17000Y19690D1*
X17019Y19643D1*
X17030Y19594D1*
X17034Y19538D1*
Y18068D1*
X17031Y18019D1*
X17020Y17970D1*
X17003Y17923D1*
X16979Y17879D1*
X16950Y17839D1*
X16915Y17803D1*
X16875Y17773D1*
X16831Y17748D1*
X16785Y17730D1*
X16736Y17719D1*
X16680Y17714D1*
X16630D1*
X14666Y11696D2*
X14658Y11597D1*
X14641Y11498D1*
X14617Y11401D1*
X14584Y11307D1*
X14544Y11215D1*
X14496Y11128D1*
X14441Y11044D1*
X14379Y10965D1*
X14311Y10892D1*
X14237Y10825D1*
X14158Y10763D1*
X14074Y10709D1*
X13986Y10662D1*
X13894Y10622D1*
X13800Y10590D1*
X13703Y10567D1*
X13604Y10551D1*
X13504Y10543D1*
X13404Y10544D1*
X13305Y10553D1*
X13206Y10570D1*
X13110Y10595D1*
X13015Y10629D1*
X12924Y10670D1*
X12837Y10718D1*
X12754Y10774D1*
X12675Y10836D1*
X12602Y10904D1*
X12536Y10979D1*
X12475Y11058D1*
X12421Y11143D1*
X12375Y11231D1*
X12336Y11323D1*
X12305Y11418D1*
X12281Y11515D1*
X12266Y11614D1*
X12259Y11714D1*
X12261Y11814D1*
X12271Y11913D1*
X12289Y12012D1*
X12315Y12108D1*
X12349Y12202D1*
X12390Y12293D1*
X12439Y12380D1*
X12495Y12463D1*
X12558Y12541D1*
X12627Y12613D1*
X12702Y12679D1*
X12782Y12739D1*
X12867Y12792D1*
X12956Y12838D1*
X13048Y12877D1*
X13143Y12907D1*
X13241Y12930D1*
X13340Y12944D1*
X13439Y12950D1*
X13539Y12948D1*
X13639Y12938D1*
X13737Y12919D1*
X13833Y12892D1*
X13927Y12857D1*
X14018Y12815D1*
X14104Y12765D1*
X14187Y12709D1*
X14264Y12645D1*
X14336Y12576D1*
X14402Y12501D1*
X14461Y12420D1*
X14513Y12335D1*
X14559Y12246D1*
X14596Y12153D1*
X14626Y12058D1*
X14648Y11960D1*
X14662Y11861D1*
X14667Y11746D1*
X14666Y11696D1*
X10400Y10350D2*
X21650D1*
Y22650D1*
X10350D1*
Y10350D1*
X10400D1*
G36*
X14235Y15052D2*
X12635D1*
Y13652D1*
X14235D1*
Y15052D1*
G37*
G36*
Y17852D2*
X12635D1*
Y16452D1*
X14235D1*
Y17852D1*
G37*
G36*
X19183Y16488D2*
Y13988D1*
X20383D1*
Y16488D1*
X19183D1*
G37*
G36*
X15883D2*
Y13988D1*
X17083D1*
Y16488D1*
X15883D1*
G37*
G36*
X15410Y18068D2*
X16680D1*
Y19538D1*
X15410D1*
Y18068D1*
G37*
G36*
X20980Y19538D2*
X19710D1*
Y18068D1*
X20980D1*
Y19538D1*
G37*
D24*
X18543Y11746D3*
D25*
X16003D3*
X13463D3*
M02*
