G04 DipTrace 2.4.0.2*
%INStepDown.GTO*%
%MOMM*%
%ADD10C,0.25*%
%ADD24C,0.127*%
%ADD25C,0.152*%
%ADD26O,0.317X0.317*%
%ADD42C,0.118*%
%FSLAX53Y53*%
G04*
G71*
G90*
G75*
G01*
%LNTopSilk*%
%LPD*%
X20286Y14720D2*
D10*
Y13420D1*
X19985Y15184D2*
X18686D1*
X11684Y13400D2*
Y14700D1*
X19079Y10318D2*
X11459D1*
Y12858D1*
X19079D1*
Y10318D1*
X17100Y19969D2*
D24*
X18025Y19044D1*
Y17194D1*
X17100Y16269D1*
X15250D1*
X14325Y17194D1*
Y19044D2*
X15250Y19969D1*
X17100D2*
X15250D1*
X14325Y19044D2*
Y17194D1*
X13542Y18799D2*
D25*
Y17178D1*
X10697D2*
Y18799D1*
X11597D2*
X12642D1*
X11692Y17178D2*
X11597D1*
X12642D2*
X12547D1*
X10792D2*
X10697D1*
X13542D2*
X13447D1*
Y18799D2*
X13542D1*
X10697D2*
X10792D1*
D26*
X11167Y17671D3*
X16034Y15083D2*
D42*
X15998Y15155D1*
X15925Y15228D1*
X15852Y15265D1*
X15707D1*
X15633Y15228D1*
X15561Y15155D1*
X15524Y15083D1*
X15488Y14973D1*
Y14790D1*
X15524Y14682D1*
X15561Y14608D1*
X15633Y14536D1*
X15707Y14499D1*
X15852D1*
X15925Y14536D1*
X15998Y14608D1*
X16034Y14682D1*
X16269Y15118D2*
X16343Y15155D1*
X16452Y15264D1*
Y14499D1*
X19255Y19629D2*
X19219Y19701D1*
X19146Y19774D1*
X19074Y19811D1*
X18928D1*
X18855Y19774D1*
X18782Y19701D1*
X18745Y19629D1*
X18709Y19519D1*
Y19336D1*
X18745Y19228D1*
X18782Y19154D1*
X18855Y19082D1*
X18928Y19045D1*
X19074D1*
X19146Y19082D1*
X19219Y19154D1*
X19255Y19228D1*
X19528Y19628D2*
Y19664D1*
X19564Y19737D1*
X19600Y19774D1*
X19674Y19810D1*
X19819D1*
X19892Y19774D1*
X19928Y19737D1*
X19965Y19664D1*
Y19592D1*
X19928Y19518D1*
X19855Y19410D1*
X19491Y19045D1*
X20001D1*
X10601Y13910D2*
X10528Y13874D1*
X10455Y13801D1*
X10419Y13729D1*
Y13583D1*
X10455Y13510D1*
X10528Y13437D1*
X10601Y13400D1*
X10710Y13364D1*
X10893D1*
X11002Y13400D1*
X11075Y13437D1*
X11147Y13510D1*
X11184Y13583D1*
Y13729D1*
X11147Y13801D1*
X11075Y13874D1*
X11002Y13910D1*
X10420Y14219D2*
Y14619D1*
X10711Y14401D1*
Y14510D1*
X10747Y14583D1*
X10784Y14619D1*
X10893Y14656D1*
X10965D1*
X11075Y14619D1*
X11148Y14547D1*
X11184Y14437D1*
Y14328D1*
X11148Y14219D1*
X11111Y14183D1*
X11039Y14146D1*
X15727Y18545D2*
Y17779D1*
X16165D1*
X16400Y18398D2*
X16473Y18435D1*
X16583Y18544D1*
Y17779D1*
X10634Y23396D2*
Y23723D1*
X10597Y23833D1*
X10561Y23870D1*
X10488Y23906D1*
X10415D1*
X10342Y23870D1*
X10305Y23833D1*
X10269Y23723D1*
Y23396D1*
X11035D1*
X10634Y23651D2*
X11035Y23906D1*
X10416Y24141D2*
X10379Y24215D1*
X10270Y24324D1*
X11035D1*
X19914Y23233D2*
Y23560D1*
X19877Y23670D1*
X19841Y23707D1*
X19768Y23743D1*
X19695D1*
X19622Y23707D1*
X19585Y23670D1*
X19549Y23560D1*
Y23233D1*
X20315D1*
X19914Y23488D2*
X20315Y23743D1*
X19732Y24016D2*
X19696D1*
X19622Y24052D1*
X19586Y24088D1*
X19550Y24161D1*
Y24307D1*
X19586Y24379D1*
X19622Y24416D1*
X19696Y24453D1*
X19768D1*
X19841Y24416D1*
X19950Y24343D1*
X20315Y23978D1*
Y24489D1*
X11675Y18374D2*
Y17828D1*
X11711Y17718D1*
X11785Y17646D1*
X11894Y17609D1*
X11967D1*
X12076Y17646D1*
X12149Y17718D1*
X12186Y17828D1*
Y18374D1*
X12421Y18228D2*
X12494Y18265D1*
X12604Y18373D1*
Y17609D1*
M02*
